<svg viewBox="0 0 35 34" xmlns="http://www.w3.org/2000/svg" fill-rule="evenodd" clip-rule="evenodd" stroke-linejoin="round" stroke-miterlimit="2"><path d="M26.685 31.153a1.25 1.25 0 01-1.248-1.248c0-.688.56-1.248 1.248-1.248s1.248.56 1.248 1.248a1.25 1.25 0 01-1.248 1.248zM14.93 29.905a1.25 1.25 0 01-1.248 1.248 1.25 1.25 0 01-1.248-1.248c0-.688.56-1.248 1.248-1.248s1.248.56 1.248 1.248zM33.812 7.797a1.313 1.313 0 00-1.019-.485H9.001l-.098-.895-.003-.029A7.187 7.187 0 001.794.153a1.314 1.314 0 100 2.627 4.553 4.553 0 014.5 3.936l1.56 14.344a3.946 3.946 0 00-2.317 3.656 3.945 3.945 0 003.94 3.941h.535a3.88 3.88 0 003.669 5.123 3.88 3.88 0 003.669-5.123h5.666a3.88 3.88 0 003.669 5.123 3.88 3.88 0 003.875-3.875 3.88 3.88 0 00-3.875-3.875H9.478a1.315 1.315 0 01-1.314-1.38c0-.723.59-1.313 1.314-1.313h16.77c2.33 0 4.47-1.442 5.45-3.675a1.314 1.314 0 00-2.405-1.056c-.552 1.259-1.776 2.104-3.046 2.104H10.46L9.287 9.94h21.89l-.642 3.08a1.314 1.314 0 002.571.537l.973-4.663c.08-.387-.017-.79-.267-1.097z" fill="#fff" fill-rule="nonzero"/></svg>