<svg viewBox="0 0 40 39" xmlns="http://www.w3.org/2000/svg" fill-rule="evenodd" clip-rule="evenodd" stroke-linejoin="round" stroke-miterlimit="2"><path d="M22.916 10.932a4.49 4.49 0 01-1.34-3.21c0-1.213.475-2.353 1.34-3.21L26.858.604a1.511 1.511 0 012.128 2.147L25.57 6.136h5.218c4.58 0 8.307 3.725 8.311 8.303l.004 4.162c0 .834-.676 1.511-1.51 1.512h-.001a1.51 1.51 0 01-1.511-1.51l-.004-4.16a5.296 5.296 0 00-5.289-5.285h-5.37l3.567 3.535a1.511 1.511 0 11-2.128 2.147l-3.942-3.908zm14.429 16.473c-2.11-2.035-3.878-3.21-5.564-3.697-2.323-.671-4.475-.06-6.395 1.815l-.009.008-2.045 2.03c-1.27-.714-3.74-2.284-6.44-4.985l-.198-.198c-2.683-2.683-4.263-5.166-4.982-6.442l2.027-2.043a.233.233 0 01.009-.008c1.875-1.92 2.486-4.072 1.815-6.395-.488-1.686-1.662-3.454-3.697-5.565A5.723 5.723 0 007.934.17a5.72 5.72 0 00-4.049 1.468l-.043.039-.059.055C1.565 3.951.402 7.056.42 10.713c.031 6.212 3.446 13.317 9.133 19.004a36.832 36.832 0 003.623 3.155 1.511 1.511 0 101.84-2.398 33.813 33.813 0 01-3.326-2.894c-5.137-5.137-8.22-11.448-8.248-16.882-.014-2.816.834-5.167 2.45-6.801l.012-.01a2.718 2.718 0 013.786.136c3.913 4.057 3.629 5.973 1.9 7.746l-2.8 2.822a1.511 1.511 0 00-.309 1.679c.071.16 1.792 3.96 6.076 8.245l.199.199c4.284 4.284 8.085 6.004 8.245 6.075a1.51 1.51 0 001.68-.308l2.821-2.8c1.773-1.73 3.688-2.013 7.745 1.9a2.718 2.718 0 01.137 3.785l-.01.012c-1.621 1.604-3.947 2.45-6.732 2.45h-.07c-2.226-.01-4.804-.621-7.456-1.765a1.511 1.511 0 00-1.197 2.775c3.065 1.322 5.971 1.999 8.639 2.012h.085c3.62 0 6.694-1.161 8.895-3.362l.056-.06.039-.043a5.721 5.721 0 001.467-4.048 5.726 5.726 0 00-1.755-3.932z" fill="#fff" fill-rule="nonzero"/></svg>