<svg viewBox="0 0 26 25" xmlns="http://www.w3.org/2000/svg" fill-rule="evenodd" clip-rule="evenodd" stroke-linejoin="round" stroke-miterlimit="2"><path d="M13.097.29c.908 0 1.65.742 1.65 1.65v6.132c0 .907-.742 1.65-1.65 1.65-.907 0-1.65-.743-1.65-1.65V1.939c0-.907.743-1.65 1.65-1.65zM.64 9.34a1.654 1.654 0 012.08-1.059l5.832 1.895a1.654 1.654 0 011.06 2.079 1.655 1.655 0 01-2.08 1.06L1.7 11.418A1.655 1.655 0 01.64 9.34zm4.759 14.644a1.655 1.655 0 01-.365-2.304l3.605-4.962a1.655 1.655 0 012.304-.365c.734.534.898 1.57.365 2.305l-3.605 4.961a1.655 1.655 0 01-2.304.365zm15.398 0a1.655 1.655 0 01-2.305-.365l-3.604-4.962a1.654 1.654 0 01.364-2.304 1.655 1.655 0 012.305.365l3.605 4.962c.533.734.369 1.77-.365 2.304zM25.555 9.34a1.655 1.655 0 01-1.06 2.079l-5.832 1.895a1.654 1.654 0 01-2.079-1.06 1.654 1.654 0 011.06-2.078l5.832-1.895a1.654 1.654 0 012.079 1.059z" fill="#00a0e4"/></svg>