<svg viewBox="0 0 24 25" xmlns="http://www.w3.org/2000/svg" fill-rule="evenodd" clip-rule="evenodd" stroke-linejoin="round" stroke-miterlimit="2"><path d="M.555 12.38C.555 5.91 5.799.666 12.268.666c6.474 0 11.717 5.243 11.717 11.714 0 6.472-5.243 11.714-11.717 11.714a11.78 11.78 0 01-3.656-.58c.833-4.835 3.886-8.777 7.92-10.451a2.603 2.603 0 004.574-1.703 2.603 2.603 0 00-5.206-.005c-5.149 1.548-9.32 5.142-11.437 9.761a11.682 11.682 0 01-1.79-2.017c.12-4.498 2.345-8.43 5.678-10.746a2.599 2.599 0 001.947.877 2.606 2.606 0 000-5.212 2.604 2.604 0 00-2.594 2.83C4.6 7.935 2.054 10.09.563 12.833a9.387 9.387 0 01-.008-.454z" fill="#ffc110" fill-rule="nonzero"/></svg>