<svg viewBox="0 0 29 20" xmlns="http://www.w3.org/2000/svg" fill-rule="evenodd" clip-rule="evenodd" stroke-linejoin="round" stroke-miterlimit="2"><path d="M28.578 3.95v12.025l-9.314-5.888 9.314-6.137zm-18.314 6.137L.95 15.975V3.95l9.314 6.137zm18.262-8.17c-.13-.827-.813-1.47-1.675-1.47H2.677c-.862 0-1.546.643-1.675 1.47l13.762 9.067 13.762-9.067zM15.239 12.739a.863.863 0 01-.95 0l-2.443-1.611-10.84 6.857c.132.82.813 1.457 1.67 1.457h24.175c.858 0 1.539-.637 1.672-1.457l-10.84-6.856-2.444 1.61z" fill="#ff4f00" fill-rule="nonzero"/></svg>