<svg viewBox="0 0 25 25" xmlns="http://www.w3.org/2000/svg" fill-rule="evenodd" clip-rule="evenodd" stroke-linejoin="round" stroke-miterlimit="2"><g fill="#ff4f00" fill-rule="nonzero"><path d="M20.956 3.638a1 1 0 00-1-1h-3V.636h-2.001v2h-3.001v-2H9.953v2H6.952v-2h-2v2H1.95a1 1 0 00-1 1v2.001h20.006v-2zM9.953 12.64h2v2.001h-2v-2zm-3.001-2h-2v-2h2v2zm0 4.001h-2v-2h2v2zm0 4.001h-2v-2h2v2zm3-10.003h2.002v2H9.953v-2zm5.003 0h2v2h-2v-2zm4 3.001c.678 0 1.352.1 2.001.295V6.64H.95v13.004a1 1 0 001 1h10.3a6.993 6.993 0 016.707-9.003z"/><path d="M19.663 20.338c-.269.267-.664.36-1.023.243l-3.001-1 .633-1.901 2.414.8 2.564-2.564 1.414 1.414-3.001 3.008zm-.707-7.697a6.002 6.002 0 106.002 6.001 6.009 6.009 0 00-6.002-6.001z"/></g></svg>