<svg viewBox="0 0 25 24" xmlns="http://www.w3.org/2000/svg" fill-rule="evenodd" clip-rule="evenodd" stroke-linejoin="round" stroke-miterlimit="2"><path d="M10.269.192c-5.13 0-9.3 4.17-9.3 9.304 0 5.135 4.17 9.304 9.3 9.304 5.14 0 9.31-4.169 9.31-9.304 0-5.135-4.17-9.304-9.31-9.304zm0 3c3.48 0 6.31 2.824 6.31 6.304 0 3.48-2.83 6.304-6.31 6.304-3.48 0-6.3-2.825-6.3-6.304 0-3.48 2.82-6.304 6.3-6.304z" fill="#fff"/><path d="M14.953 16.083l7.384 7.384a1.5 1.5 0 102.121-2.121l-7.384-7.384a1.5 1.5 0 10-2.121 2.121z" fill="#fff"/></svg>