<svg viewBox="0 0 26 25" xmlns="http://www.w3.org/2000/svg" fill-rule="evenodd" clip-rule="evenodd" stroke-linejoin="round" stroke-miterlimit="2"><path d="M17.624 1.903a4.88 4.88 0 00-3.814 4.764c0 .051.012.11.014.16 3.44.738 5.175 3.073 5.175 6.154 0 3.462-2.81 6.269-6.246 6.269-3.435 0-6.644-2.888-6.644-7.17 0-5.228 4.447-10.131 10.784-10.287.115-.002.296.002.48.01a12.553 12.553 0 00-4.496-.825C6.077.978.563 6.352.563 12.98c0 6.63 5.514 12.005 12.314 12.005S25.19 19.612 25.19 12.98c0-4.988-3.123-9.267-7.566-11.078z" fill="#ed1b2d"/></svg>