<svg viewBox="0 0 20 22" xmlns="http://www.w3.org/2000/svg" fill-rule="evenodd" clip-rule="evenodd" stroke-linejoin="round" stroke-miterlimit="2"><g fill="#fff" fill-rule="nonzero"><path d="M9.751 4.244c-.34 0-.34.53 0 .534 2.635.02 4.805 1.857 4.829 5.225 0 .355.52.351.516-.004h-.001c-.028-3.63-2.398-5.734-5.344-5.755z"/><path d="M13.217 9.445c-.008.35.512.368.516.012.043-2.001-1.19-3.65-3.51-3.824-.34-.024-.375.51-.036.534 2.011.153 3.07 1.525 3.03 3.278zm-.556 2.276c-.435-.252-.88-.095-1.063.153l-.383.496c-.195.253-.56.22-.56.22-2.658-.704-3.369-3.486-3.369-3.486s-.033-.377.211-.579l.48-.396c.24-.19.391-.65.147-1.1-.653-1.18-1.091-1.586-1.314-1.898-.235-.294-.588-.36-.955-.162h-.008c-.762.447-1.598 1.282-1.33 2.142.456.906 1.293 3.797 3.964 5.98 1.256 1.034 3.242 2.092 4.085 2.337l.008.012c.83.277 1.639-.591 2.07-1.377v-.006c.192-.38.128-.74-.152-.976-.495-.483-1.243-1.017-1.83-1.36z"/><path d="M10.587 7.602c.847.05 1.258.492 1.303 1.402.015.355.531.33.515-.025-.056-1.187-.675-1.849-1.79-1.91-.34-.02-.371.513-.028.533z"/></g></svg>